<svg width="138" height="138" viewBox="0 0 138 138" fill="none" xmlns="http://www.w3.org/2000/svg">
<path d="M68.0061 77.7465V106.946L38.1045 118.417V89.2176L68.0061 77.7465Z" fill="#134B92"/>
<path d="M127.71 50.8848L127.783 77.1048L127.73 77.08V80.4567C127.73 80.5933 127.73 80.7299 127.71 80.8664C127.574 82.7038 126.539 84.2308 125.128 84.8267C125.118 84.8267 125.107 84.8267 125.097 84.8391L97.9229 95.2426V66.0434L98.3828 65.8696L124.961 55.7393L125.18 55.6524C125.18 55.6524 125.202 55.6524 125.211 55.64C126.623 55.044 127.032 54.9119 127.783 52.6746L127.71 50.8848Z" fill="#DC2429"/>
<path d="M97.9229 36.4345V65.6337L68.0316 54.1502V24.9511L97.9229 36.4345Z" fill="#C4232A"/>
<path d="M97.9229 66.0683V95.2674L68.0316 106.751V77.5517L97.9229 66.0683Z" fill="#C4232A"/>
<path d="M68.0316 24.9511V54.1502L38.13 42.6667V13.4675L68.0316 24.9511Z" fill="#154A8D"/>
<path d="M23.3202 38.6195C30.0391 38.6195 35.4858 32.1497 35.4858 24.1689C35.4858 16.1881 30.0391 9.71831 23.3202 9.71831C16.6014 9.71831 11.1548 16.1881 11.1548 24.1689C11.1548 32.1497 16.6014 38.6195 23.3202 38.6195Z" fill="#212657"/>
<path d="M38.13 89.0228V118.185L10.1619 128.961L8.24925 129.693V119.377L8.2388 119.339V117.762C8.2388 117.564 8.2388 117.378 8.2597 117.179C8.28061 116.782 8.30151 116.384 8.34331 115.999C8.34331 115.975 8.34331 115.95 8.34331 115.925C8.37467 115.54 8.41648 115.156 8.46873 114.771C9.6184 105.72 14.8755 98.2841 21.9093 95.2549C22.3588 95.0563 22.8186 94.8825 23.2784 94.7335L38.1195 89.0352L38.13 89.0228Z" fill="#212657"/>
<path d="M124.97 48.0394C128.771 49.649 128.714 54.6861 124.877 56.2212L124.039 56.5565L97.788 66.0985V36.4082L124.039 47.6455L124.97 48.0394Z" fill="url(#paint0_linear_2_2)"/>
<defs>
<linearGradient id="paint0_linear_2_2" x1="105.757" y1="47.7526" x2="125.097" y2="57.4008" gradientUnits="userSpaceOnUse">
<stop stop-color="#DC2429"/>
<stop offset="1" stop-color="#921A1D"/>
</linearGradient>
</defs>
</svg>
